# xmcd
# 
# Track frame offsets:
#     150
#     22212
#     37704
#     52700
#     71830
#     92632
#     112070
#     130844
#     149484
#     171092
#     189376
# 
# Disc length: 2924
# 
# Revision: 0
# Processed by: cddbd v1.5.2PL0 Copyright (c) Steve Scherf et al.
# Submitted via: fre:ac v1.0.17
# 
DISCID=960b6a0b
DTITLE=John Mayall - A Special Life
DYEAR=2014
DGENRE=Blues
TTITLE0=Why Did You Go Last Night
TTITLE1=Speak Of The Devil
TTITLE2=That's All Right
TTITLE3=World Gone Crazy
TTITLE4=Floodin' In California
TTITLE5=Big Town Playboy
TTITLE6=A Special Life
TTITLE7=I Just Got To Know
TTITLE8=Heartache
TTITLE9=Like A Fool
TTITLE10=Just A Memory
EXTD=
EXTT0=
EXTT1=
EXTT2=
EXTT3=
EXTT4=
EXTT5=
EXTT6=
EXTT7=
EXTT8=
EXTT9=
EXTT10=
PLAYORDER=
